<mxfile host="Electron" agent="Mozilla/5.0 (Windows NT 10.0; Win64; x64) AppleWebKit/537.36 (KHTML, like Gecko) draw.io/28.1.2 Chrome/138.0.7204.243 Electron/37.4.0 Safari/537.36" version="28.1.2">
  <diagram name="Page-1" id="VUupfpJNlbURULNmI9s1">
    <mxGraphModel dx="635" dy="832" grid="1" gridSize="10" guides="1" tooltips="1" connect="1" arrows="1" fold="1" page="1" pageScale="1" pageWidth="850" pageHeight="1100" math="0" shadow="0">
      <root>
        <mxCell id="0" />
        <mxCell id="1" parent="0" />
        <mxCell id="63oyYGpp-a3GvrfUXpGr-17" value="" style="html=1;whiteSpace=wrap;" vertex="1" parent="1">
          <mxGeometry x="110" y="10" width="440" height="310" as="geometry" />
        </mxCell>
        <mxCell id="63oyYGpp-a3GvrfUXpGr-1" value="user" style="shape=umlActor;verticalLabelPosition=bottom;verticalAlign=top;html=1;outlineConnect=0;" vertex="1" parent="1">
          <mxGeometry x="60" y="120" width="30" height="60" as="geometry" />
        </mxCell>
        <mxCell id="63oyYGpp-a3GvrfUXpGr-2" value="" style="endArrow=none;html=1;rounded=0;" edge="1" parent="1" source="63oyYGpp-a3GvrfUXpGr-1" target="63oyYGpp-a3GvrfUXpGr-4">
          <mxGeometry width="50" height="50" relative="1" as="geometry">
            <mxPoint x="140" y="140" as="sourcePoint" />
            <mxPoint x="163.80866786078195" y="115.1108804832644" as="targetPoint" />
          </mxGeometry>
        </mxCell>
        <mxCell id="63oyYGpp-a3GvrfUXpGr-4" value="compose email" style="ellipse;whiteSpace=wrap;html=1;" vertex="1" parent="1">
          <mxGeometry x="170" y="80" width="130" height="40" as="geometry" />
        </mxCell>
        <mxCell id="63oyYGpp-a3GvrfUXpGr-5" value="" style="endArrow=none;html=1;rounded=0;" edge="1" parent="1" source="63oyYGpp-a3GvrfUXpGr-1" target="63oyYGpp-a3GvrfUXpGr-6">
          <mxGeometry width="50" height="50" relative="1" as="geometry">
            <mxPoint x="310" y="250" as="sourcePoint" />
            <mxPoint x="170" y="160" as="targetPoint" />
          </mxGeometry>
        </mxCell>
        <mxCell id="63oyYGpp-a3GvrfUXpGr-6" value="reply to an email" style="ellipse;whiteSpace=wrap;html=1;" vertex="1" parent="1">
          <mxGeometry x="170" y="130" width="130" height="40" as="geometry" />
        </mxCell>
        <mxCell id="63oyYGpp-a3GvrfUXpGr-8" value="&amp;lt;&amp;lt;extend&amp;gt;&amp;gt;" style="html=1;verticalAlign=bottom;endArrow=open;dashed=1;endSize=8;curved=0;rounded=0;" edge="1" parent="1" source="63oyYGpp-a3GvrfUXpGr-10" target="63oyYGpp-a3GvrfUXpGr-4">
          <mxGeometry relative="1" as="geometry">
            <mxPoint x="410" y="100" as="sourcePoint" />
            <mxPoint x="290" y="230" as="targetPoint" />
          </mxGeometry>
        </mxCell>
        <mxCell id="63oyYGpp-a3GvrfUXpGr-10" value="send email" style="ellipse;whiteSpace=wrap;html=1;" vertex="1" parent="1">
          <mxGeometry x="420" y="80" width="120" height="40" as="geometry" />
        </mxCell>
        <mxCell id="63oyYGpp-a3GvrfUXpGr-11" value="" style="endArrow=none;html=1;rounded=0;" edge="1" parent="1" target="63oyYGpp-a3GvrfUXpGr-12" source="63oyYGpp-a3GvrfUXpGr-1">
          <mxGeometry width="50" height="50" relative="1" as="geometry">
            <mxPoint x="70" y="149.99846153846156" as="sourcePoint" />
            <mxPoint x="265.7726358302473" y="202.89967889373906" as="targetPoint" />
          </mxGeometry>
        </mxCell>
        <mxCell id="63oyYGpp-a3GvrfUXpGr-12" value="forward an email" style="ellipse;whiteSpace=wrap;html=1;" vertex="1" parent="1">
          <mxGeometry x="170" y="175.96" width="130" height="40" as="geometry" />
        </mxCell>
        <mxCell id="63oyYGpp-a3GvrfUXpGr-13" value="" style="endArrow=none;html=1;rounded=0;" edge="1" parent="1" target="63oyYGpp-a3GvrfUXpGr-14" source="63oyYGpp-a3GvrfUXpGr-1">
          <mxGeometry width="50" height="50" relative="1" as="geometry">
            <mxPoint x="90" y="250" as="sourcePoint" />
            <mxPoint x="170" y="260" as="targetPoint" />
          </mxGeometry>
        </mxCell>
        <mxCell id="63oyYGpp-a3GvrfUXpGr-14" value="attach files to an email" style="ellipse;whiteSpace=wrap;html=1;" vertex="1" parent="1">
          <mxGeometry x="170" y="230" width="130" height="40" as="geometry" />
        </mxCell>
        <mxCell id="63oyYGpp-a3GvrfUXpGr-15" value="&amp;lt;&amp;lt;include&amp;gt;&amp;gt;" style="html=1;verticalAlign=bottom;endArrow=open;dashed=1;endSize=8;curved=0;rounded=0;" edge="1" parent="1" target="63oyYGpp-a3GvrfUXpGr-14">
          <mxGeometry relative="1" as="geometry">
            <mxPoint x="410" y="250" as="sourcePoint" />
            <mxPoint x="270" y="230" as="targetPoint" />
          </mxGeometry>
        </mxCell>
        <mxCell id="63oyYGpp-a3GvrfUXpGr-16" value="antivirus scan" style="ellipse;whiteSpace=wrap;html=1;" vertex="1" parent="1">
          <mxGeometry x="410" y="230" width="120" height="40" as="geometry" />
        </mxCell>
        <mxCell id="63oyYGpp-a3GvrfUXpGr-18" value="Send email USECASE" style="text;html=1;align=center;verticalAlign=middle;whiteSpace=wrap;rounded=0;fontStyle=1" vertex="1" parent="1">
          <mxGeometry x="210" y="10" width="240" height="30" as="geometry" />
        </mxCell>
      </root>
    </mxGraphModel>
  </diagram>
</mxfile>
